<svg xmlns="http://www.w3.org/2000/svg" viewBox="0 0 448 512"  xmlns:v="https://vecta.io/nano"><path d="M352 320a95.58 95.58 0 0 0-59.79 20.895l-102.486-64.054a96.551 96.551 0 0 0 0-41.683l102.486-64.054C308.613 184.181 329.392 192 352 192c53.019 0 96-42.981 96-96S405.019 0 352 0s-96 42.981-96 96a96.3 96.3 0 0 0 2.276 20.841L155.79 180.895A95.58 95.58 0 0 0 96 160c-53.019 0-96 42.981-96 96s42.981 96 96 96a95.58 95.58 0 0 0 59.79-20.895l102.486 64.054A96.301 96.301 0 0 0 256 416c0 53.019 42.981 96 96 96s96-42.981 96-96-42.981-96-96-96z"/></svg>